<svg xmlns="http://www.w3.org/2000/svg" viewBox="0 0 443.08 455.28"><defs><style>.cls-1{fill:#f8b905;}.cls-2{fill:#bdc3cd;}.cls-3,.cls-4{fill:#333;}.cls-4{font-size:138.33px;font-family:MoolBoran;}.cls-5{font-size:39.52px;font-family:ArialMT, Arial;}</style></defs><g id="Layer_2" data-name="Layer 2"><g id="Layer_1-2" data-name="Layer 1"><path class="cls-1" d="M226,67.52c0-13.08-.07-26.44,0-39.63,0-5.48.7-10.25,3.74-15A30.08,30.08,0,0,1,241.23,2.66C252.36-3.07,264.77,1.44,275,6.93a129.87,129.87,0,0,1,26.27,18.39,136.52,136.52,0,0,1,26,32.58,141.84,141.84,0,0,1,10.12,21.27c3.31,8.89,7.06,18.26,4.4,27.82-2.16,7.75-7.79,15.63-15.68,18.26a44.53,44.53,0,0,1-13.4,2.55c-22.46.2-44.93-.12-67.39,0-9.09.06-16.47-5-18.72-13a16.72,16.72,0,0,1-.55-4.46C226,96,226,81.78,226,67.52Z"/><path class="cls-2" d="M156.79,127.24c-13.09,0-26.44.07-39.64,0-5.48,0-10.25-.7-15-3.74A30.18,30.18,0,0,1,91.92,112c-5.72-11.13-1.21-23.55,4.27-33.77A130.32,130.32,0,0,1,114.59,52,136.29,136.29,0,0,1,147.17,26a140.41,140.41,0,0,1,21.27-10.12c8.88-3.32,18.26-7.07,27.82-4.41,7.75,2.16,15.63,7.79,18.25,15.68a44.55,44.55,0,0,1,2.56,13.41c.2,22.46-.13,44.92,0,67.38,0,9.09-5,16.48-13.06,18.73a17.5,17.5,0,0,1-4.45.55C185.31,127.26,171.05,127.24,156.79,127.24Z"/><path class="cls-2" d="M351.15,151.63a30.08,30.08,0,0,0-10.28-11.48c-4.7-3.05-9.47-3.71-15-3.75-13.19-.09-26.54,0-39.63,0q-21.39,0-42.78,0a16.65,16.65,0,0,0-4.45.55c-8.09,2.24-13.11,9.63-13.06,18.72.14,22.46-.19,44.92,0,67.38a44.55,44.55,0,0,0,2.56,13.41c2.62,7.89,10.5,13.52,18.25,15.68,9.56,2.66,18.93-1.09,27.82-4.41a139.9,139.9,0,0,0,19.55-9.2c-.82-2-1.64-4-2.42-6a18,18,0,0,1-.88-8.38c.37-3,3.34-4.07,5.8-2.18a17.43,17.43,0,0,1,4.9,5.41c.88,1.67,1.73,3.35,2.59,5a132.83,132.83,0,0,0,24.31-20.77,130.32,130.32,0,0,0,18.4-26.27C352.36,175.18,356.87,162.77,351.15,151.63Zm-49.7,17.27L284.2,176l-1.63-3.25,17-9.09ZM295.67,158l-13.75,13.17-2.37-2.77,12.22-14.3C293.06,155.35,294.24,156.54,295.67,158ZM282,148.59l4.18,1.52c.12.65.54,1.46.3,1.92-2.61,5.09-5.33,10.13-8,15.2l-2.83-1Zm-7-1.31c-.45,6.45-.87,12.47-1.29,18.57l-3.58.24c-.19-6.21-.38-12.3-.57-18.57Zm-13,2c2.32,5.8,4.53,11.36,6.83,17.13l-3.19,1.63c-2.79-5.4-5.53-10.73-8.55-16.57Zm-11.24,7.18,13.88,12.32-2.4,2.68-15-10.84Zm-7,10.38,17.62,6.39c-.16.51-.46,1.5-.83,2.71-5.76-1.18-11.45-2.31-17.11-3.58-.46-.1-.69-1.18-1-1.8Zm-2,10.89,18.69-.3c.26,1.18.49,2.26.76,3.55l-18.92,2.19C242.13,181.21,242,179.6,241.79,177.74Zm4.9,16.92-2.62-4.85,17.71-7.28c.43,1.11.84,2.13,1.33,3.39Zm3.62,8.13c-.64-1.71-1.22-3.29-1.91-5.14l17.26-7.1c.5,1.11,1,2.17,1.51,3.3Zm22.74-8.14c-1.57.73-2.67.17-3.38-1.38-1.83-4-3.91-7.83-5.45-11.91-.77-2-.57-4.41-.7-5.56,1.83-4.5,4.24-6.53,7.85-6.93s6.56.79,8.25,3.82a143.25,143.25,0,0,1,6.47,13.59c.28.64-.51,2.32-1.23,2.71C281,191,277,192.81,273.05,194.65Zm16.25,27.9-12.87-27.11,6.8-2.77c4.12,8.74,8.43,17.85,12.87,27.26C292,218.55,291.29,218.85,289.3,222.55ZM288,184.09c-.65-1.21-1.14-2.14-1.72-3.23L303,172l2,5.09Z"/><path class="cls-3" d="M296.68,222c-2.46-1.89-5.43-.85-5.8,2.18a18,18,0,0,0,.88,8.38c.78,2,1.6,4,2.42,6,.56-.32,1.16-.59,1.72-.92,2.82-1.63,5.57-3.37,8.27-5.18-.86-1.67-1.71-3.35-2.59-5A17.43,17.43,0,0,0,296.68,222Z"/><path class="cls-3" d="M286.44,152c.24-.46-.18-1.27-.3-1.92L282,148.59l-6.39,17.62,2.83,1C281.11,162.16,283.83,157.12,286.44,152Z"/><path class="cls-3" d="M243.44,172.37c5.66,1.27,11.35,2.4,17.11,3.58.37-1.21.67-2.2.83-2.71l-17.62-6.39-1.35,3.72C242.75,171.19,243,172.27,243.44,172.37Z"/><path class="cls-3" d="M286.09,186.28a143.25,143.25,0,0,0-6.47-13.59c-1.69-3-4.77-4.22-8.25-3.82s-6,2.43-7.85,6.93c.13,1.15-.07,3.54.7,5.56,1.54,4.08,3.62,7.95,5.45,11.91.71,1.55,1.81,2.11,3.38,1.38,4-1.84,7.95-3.63,11.81-5.66C285.58,188.6,286.37,186.92,286.09,186.28Z"/><path class="cls-3" d="M276.43,195.44l12.87,27.11c2-3.7,2.69-4,6.8-2.62-4.44-9.41-8.75-18.52-12.87-27.26Z"/><path class="cls-3" d="M281.92,171.14,295.67,158c-1.43-1.43-2.61-2.62-3.9-3.9l-12.22,14.3Z"/><path class="cls-3" d="M248.4,197.65c.69,1.85,1.27,3.43,1.91,5.14l16.86-8.94c-.52-1.13-1-2.19-1.51-3.3Z"/><path class="cls-3" d="M261.78,182.53l-17.71,7.28,2.62,4.85,16.42-8.74C262.62,184.66,262.21,183.64,261.78,182.53Z"/><path class="cls-3" d="M286.28,180.86c.58,1.09,1.07,2,1.72,3.23L305.06,177,303,172Z"/><path class="cls-3" d="M260.48,177.44l-18.69.3c.18,1.86.34,3.47.53,5.44L261.24,181C261,179.7,260.74,178.62,260.48,177.44Z"/><path class="cls-3" d="M284.2,176l17.25-7.13-1.85-5.21-17,9.09Z"/><path class="cls-3" d="M264.61,168.79l-13.88-12.32-3.51,4.16,15,10.84Z"/><path class="cls-3" d="M273.7,165.85c.42-6.1.84-12.12,1.29-18.57l-5.44.24c.19,6.27.38,12.36.57,18.57Z"/><path class="cls-3" d="M268.8,166.42c-2.3-5.77-4.51-11.33-6.83-17.13l-4.91,2.19c3,5.84,5.76,11.17,8.55,16.57Z"/><path class="cls-3" d="M282.31,127.88l.15-27.55a7.47,7.47,0,0,0-1.89-5.13,1.68,1.68,0,0,1-.42-1c-.13-6.61-.22-13.21-.32-19.81,0-1.62-.05-3.24-.07-4.76L266,70.37c0,.17,0,.41,0,.66q.38,11.53.74,23.06a1.24,1.24,0,0,1-.25.83,7.62,7.62,0,0,0-2.14,5.5q0,11.91-.12,23.82c0,1.21,0,2.42,0,3.64Z"/><path class="cls-3" d="M304.8,42.4a12.32,12.32,0,0,1,2.17,5,24.74,24.74,0,0,1,.73,7.57,13.79,13.79,0,0,1-1.18,5.24,5,5,0,0,1-2.5,2.56,15.67,15.67,0,0,1-7.78,1.44c-1.57-.1-2.75-1-4-1.83a30.11,30.11,0,0,0-3.34-1.93,5.66,5.66,0,0,0-7.3,1.65,26.25,26.25,0,0,0-1.72,2.45,1.6,1.6,0,0,0-.17.76c0,.75,0,1.51,0,2.2l-13.86.76a55.48,55.48,0,0,1-.11-6.07c.23-2.61-2.53-6.41-6.2-5.67a11.85,11.85,0,0,0-5,2.51,43,43,0,0,0-7.94,8.77c-.65.9-1.25,1.84-1.91,2.73a.87.87,0,0,1-.68.32c-1.48-.17-2.95-.4-4.47-.62a3.54,3.54,0,0,1,.1-.51c2-6.11,4.36-12.31,8.26-17.51a23.36,23.36,0,0,1,15-9.06c.66-.11,1.31-.19,2-.25a80.89,80.89,0,0,1,15.24.47,6.49,6.49,0,0,1,4.77,2.18s0,0,.05.05c.29.37.56.35.95.08,1.19-.85,2.46-1.6,3.63-2.48A14,14,0,0,1,296,40.42a13.7,13.7,0,0,1,7.26.81A4.85,4.85,0,0,1,304.8,42.4Z"/><path class="cls-3" d="M153,127.27V90h3.81v37.28h4.32V86.18h-2.87V74.46H142.52V86.2H139.7v41.07Z"/><path class="cls-3" d="M187.61,127.27V104.89H173.28v22.38Z"/><path class="cls-3" d="M143.2,73.22v-.89c0-4.65,0-9.3,0-13.95-.07-5.79,2.86-9.43,7.75-11.48a24.63,24.63,0,0,1,3.05-1,1.79,1.79,0,0,1,2.28.95,4.86,4.86,0,0,1,.59,2.07c0,7.89,0,15.78,0,23.67,0,.19,0,.38,0,.61Zm2.09-1.57v-.79c0-3.81,0-7.62,0-11.44a13.58,13.58,0,0,1,.39-3.11c1-3.68,3.51-5.91,6.86-7.4.34-.15.69-.28,1.08-.44l-.3-.73c-.56.23-1.08.42-1.58.66-4.48,2.13-7.14,5.54-7.24,10.62-.08,4.13,0,8.27,0,12.4a.88.88,0,0,0,.07.23Z"/><path class="cls-3" d="M182.25,74.37v1.37H185v1.33h-2.76v26.71H178.7V77.09h-2.8V75.75h2.74V74.4h-3.46V73.11h3.44V71.72H174.7V70.4h3.93V69h-4.48V67.71h4.48V66.37h-4.48V65h4.48V63.7h-4.47V62.37h4.48V61H174.5V59.68h4.13V58.31h-3.52V57h3.51V55.64h-2.07V54.32h2.08v-.83l-.67-.1V52.16h5v1.22l-.67.1v.81h2.08v1.32h-2.09V57h3.53v1.3h-3.52v1.39h4.12V61h-4.12v1.38h4.47v1.32h-4.47V65h4.48v1.35h-4.48v1.33h4.46V69h-4.47v1.36h4v1.32h-3.94v1.38h3.45v1.3Z"/><path class="cls-1" d="M217.34,196.7c0-14.26,0-28.52,0-42.78a17.5,17.5,0,0,0-.55-4.45c-2.25-8.09-9.63-13.11-18.73-13.06-10.62.07-21.24,0-31.87,0l7.35,35.87c.81,3.94,1.68,7.86,2.39,11.82a3.14,3.14,0,0,0,2.43,2.7c8.34,3,13.43,9,14.71,17.79,1.22,8.37-1.93,15.18-8.76,21-1-5.07-1.91-9.58-2.85-14.08s-3.49-6.2-7.95-5.33c-1.89.37-3.78.74-5.66,1.17-3.71.86-5.46,3.49-4.76,7.26.74,3.95,1.61,7.88,2.41,11.81.16.8.27,1.61.46,2.72a21.5,21.5,0,0,1-13.84-10.24,22,22,0,0,1,4.13-27.5,3.55,3.55,0,0,0,1.21-3.89Q152.11,162,146.9,136.41c-5.41,0-10.83,0-16.24,0a44.54,44.54,0,0,0-13.4,2.56c-7.9,2.62-13.52,10.5-15.68,18.26-2.66,9.55,1.09,18.93,4.4,27.81a140.41,140.41,0,0,0,10.12,21.27,136.29,136.29,0,0,0,26,32.58,129.92,129.92,0,0,0,26.27,18.4c10.23,5.48,22.64,10,33.77,4.27a30.23,30.23,0,0,0,11.49-10.27c3-4.71,3.7-9.48,3.74-15C217.42,223.15,217.34,209.79,217.34,196.7Z"/><path class="cls-3" d="M156.23,191.37a22,22,0,0,0-4.13,27.5,21.5,21.5,0,0,0,13.84,10.24c-.19-1.11-.3-1.92-.46-2.72-.8-3.93-1.67-7.86-2.41-11.81-.7-3.77,1.05-6.4,4.76-7.26,1.88-.43,3.77-.8,5.66-1.17,4.46-.87,7,.82,7.95,5.33s1.82,9,2.85,14.08c6.83-5.81,10-12.62,8.76-21-1.28-8.78-6.37-14.75-14.71-17.79a3.14,3.14,0,0,1-2.43-2.7c-.71-4-1.58-7.88-2.39-11.82l-7.35-35.87c-6.42,0-12.84,0-19.27,0q5.22,25.54,10.54,51.07A3.55,3.55,0,0,1,156.23,191.37Z"/><text class="cls-4" transform="translate(0 364.57)">WE SERVIO<tspan class="cls-5"><tspan x="55.07" y="39.52">All Home Services</tspan></tspan></text></g></g></svg>